<?xml version="1.0" standalone="no"?><!DOCTYPE svg PUBLIC "-//W3C//DTD SVG 1.1//EN" "http://www.w3.org/Graphics/SVG/1.1/DTD/svg11.dtd"><svg t="1753706965080" class="icon" viewBox="0 0 1024 1024" version="1.1" xmlns="http://www.w3.org/2000/svg" p-id="2207" xmlns:xlink="http://www.w3.org/1999/xlink" width="200" height="200"><path d="M516.2496 510.5664m-445.4912 0a445.4912 445.4912 0 1 0 890.9824 0 445.4912 445.4912 0 1 0-890.9824 0Z" fill="#FFEFEB" p-id="2208"></path><path d="M294.9632 326.0416a23.9104 23.9104 0 0 1-16.4352-6.5024l-39.8848-37.632a24.0128 24.0128 0 0 1 32.9728-34.9184l39.8336 37.5808a24.0128 24.0128 0 0 1-16.4864 41.472z" fill="#F78887" p-id="2209"></path><path d="M740.608 326.0416a24.0128 24.0128 0 0 1-16.4864-41.472l39.8848-37.5808a24.0128 24.0128 0 0 1 32.9728 34.9184l-39.8848 37.632a24.0128 24.0128 0 0 1-16.4864 6.5024z" fill="#F55857" p-id="2210"></path><path d="M517.7856 256.4096a24.0128 24.0128 0 0 1-24.0128-24.0128V171.52a24.0128 24.0128 0 1 1 48.0256 0v60.8768a24.0128 24.0128 0 0 1-24.0128 24.0128z" fill="#F78887" p-id="2211"></path><path d="M788.8896 724.4288h-38.7584v-219.648a229.5296 229.5296 0 1 0-459.0592 0v219.648h-30.72a24.064 24.064 0 1 0 0 48.0768h528.5376a24.064 24.064 0 0 0 0-48.0768z m-175.6672-162.4064l-93.6448 99.584a24.064 24.064 0 0 1-17.5104 7.5776 23.7056 23.7056 0 0 1-16.4352-6.5536 23.9616 23.9616 0 0 1-1.0752-33.8944l55.6544-59.136H448.7168a24.064 24.064 0 0 1-16.8448-40.96l91.4432-89.6a24.0128 24.0128 0 1 1 33.5872 34.304l-49.408 48.4352h88.2688a24.0128 24.0128 0 0 1 17.4592 40.448z" fill="#F54341" p-id="2212"></path><path d="M520.6016 275.2512a229.7856 229.7856 0 0 0-229.5296 229.5296v218.0608c9.2672 2.6112 18.5856 5.12 28.2112 6.9632a384.3072 384.3072 0 0 0 430.7968-227.072 229.7344 229.7344 0 0 0-229.4784-227.4816z m92.6208 286.72l-93.6448 99.584a24.064 24.064 0 0 1-17.5104 7.5776 23.7056 23.7056 0 0 1-16.4352-6.5536 23.9616 23.9616 0 0 1-1.0752-33.8944l55.6544-59.136H448.7168a24.064 24.064 0 0 1-16.8448-40.96l91.4432-89.6a24.0128 24.0128 0 1 1 33.5872 34.304l-49.408 48.4352h88.2688a24.0128 24.0128 0 0 1 17.4592 40.448z" fill="#F55857" p-id="2213"></path><path d="M520.6016 275.2512a229.7856 229.7856 0 0 0-229.5296 229.5296v96.2048a437.9136 437.9136 0 0 0 155.8016-31.5392 23.9616 23.9616 0 0 1-15.0016-40.96l91.4432-89.6a24.0128 24.0128 0 1 1 33.5872 34.304l-49.408 48.4352h27.904a439.0912 439.0912 0 0 0 148.48-178.0224 228.7616 228.7616 0 0 0-163.2768-68.352z" fill="#F67170" p-id="2214"></path><path d="M297.5744 450.56a438.3232 438.3232 0 0 0 263.936-171.776A229.4272 229.4272 0 0 0 297.5744 450.56z" fill="#F78887" p-id="2215"></path></svg>