<?xml version="1.0" standalone="no"?><!DOCTYPE svg PUBLIC "-//W3C//DTD SVG 1.1//EN" "http://www.w3.org/Graphics/SVG/1.1/DTD/svg11.dtd"><svg t="1753706907020" class="icon" viewBox="0 0 1024 1024" version="1.1" xmlns="http://www.w3.org/2000/svg" p-id="1512" xmlns:xlink="http://www.w3.org/1999/xlink" width="200" height="200"><path d="M511.4368 511.1296m-445.4912 0a445.4912 445.4912 0 1 0 890.9824 0 445.4912 445.4912 0 1 0-890.9824 0Z" fill="#FFF3E6" p-id="1513"></path><path d="M522.8544 416.9216l-8.704 11.52h-204.8l-9.3696-11.52h-12.3904C301.2096 486.4 351.9488 558.08 412.5184 558.08c59.6992 0 109.8752-76.1344 124.2624-141.2096z" fill="#FFAD3A" p-id="1514"></path><path d="M644.4544 727.04l-2.56-28.5184a197.12 197.12 0 0 0-116.5824-162.5088c-31.9488 35.84-70.7584 60.3648-112.64 60.3648-43.008 0-82.7904-23.6544-115.2512-59.5456a197.1712 197.1712 0 0 0-114.8928 164.096l-1.9968 26.112a20.7872 20.7872 0 0 0 20.736 22.3744h422.5024a20.7872 20.7872 0 0 0 20.6848-22.3744z" fill="#FFA131" p-id="1515"></path><path d="M535.6544 327.68a187.1872 187.1872 0 0 0-46.08-90.4704L476.16 312.32a16.64 16.64 0 0 1-16.384 13.6704 19.968 19.968 0 0 1-2.9696-0.256 16.64 16.64 0 0 1-13.4144-19.3536l16.7936-92.416a97.28 97.28 0 0 0-95.0784 0l16.7936 92.5184a16.64 16.64 0 0 1-13.2608 19.456 19.4048 19.4048 0 0 1-2.9696 0.256A16.6912 16.6912 0 0 1 349.0816 312.32L335.36 236.9536a187.4432 187.4432 0 0 0-46.08 90.6752C276.48 327.68 266.24 344.7296 266.24 357.376v27.1872a7.424 7.424 0 0 0 7.424 7.424h36.352l9.4208 11.5712h184.32l8.704-11.5712h38.5536a7.424 7.424 0 0 0 7.424-7.424V357.376c0.1024-12.6464-10.1376-29.696-22.784-29.696z" fill="#FFBB48" p-id="1516"></path><path d="M781.6192 401.92l-7.0656 9.5744h-167.4752l-7.5776-9.5744h-8.6016c12.0832 54.8864 52.4288 110.592 100.4032 110.592s87.04-58.7264 99.8912-110.592zM791.1424 324.9152a152.9344 152.9344 0 0 0-34.816-70.8096l-10.24 56.9856a16.64 16.64 0 0 1-16.384 13.6704 14.848 14.848 0 0 1-2.9696 0 16.64 16.64 0 0 1-13.4144-19.3536l13.4144-73.8816a78.7456 78.7456 0 0 0-35.328-8.448 79.7184 79.7184 0 0 0-35.1744 8.3456l13.4656 73.984a16.64 16.64 0 0 1-13.4144 19.3536 15.0528 15.0528 0 0 1-3.0208 0 16.5888 16.5888 0 0 1-16.3328-13.6704l-10.24-57.1392a153.6 153.6 0 0 0-34.9696 70.9632c-10.24 0-18.5344 13.8752-18.5344 24.1152v22.0672a5.9904 5.9904 0 0 0 5.9904 5.9904h30.6176l7.5776 9.6256h146.8416l7.0656-9.6256H803.84a5.9904 5.9904 0 0 0 6.0416-5.9904v-22.0672c-0.1536-10.24-8.448-24.1152-18.7392-24.1152z" fill="#FFA131" p-id="1517"></path><path d="M877.2608 626.2272a159.6928 159.6928 0 0 0-88.4736-128.9216c-27.6992 30.72-61.184 51.5584-97.28 51.5584-37.0688 0-71.68-20.1216-99.5328-50.7904a157.7984 157.7984 0 0 0-24.6784 15.36 240.64 240.64 0 0 1 114.944 154.0608h180.3264a16.8448 16.8448 0 0 0 16.7936-18.3808z" fill="#FFA131" p-id="1518"></path><path d="M691.5072 548.864c-37.0688 0-71.68-20.1216-99.5328-50.7904a157.7984 157.7984 0 0 0-24.6784 15.36 241.1008 241.1008 0 0 1 89.4976 89.5488 401.3568 401.3568 0 0 0 55.6032-56.6784 98.6112 98.6112 0 0 1-20.8896 2.56zM791.1424 324.9152a152.9344 152.9344 0 0 0-34.816-70.8096l-10.24 56.9856a16.64 16.64 0 0 1-16.384 13.6704 14.848 14.848 0 0 1-2.9696 0 16.64 16.64 0 0 1-13.4144-19.3536l13.4144-73.8816a78.7456 78.7456 0 0 0-35.328-8.448 79.7184 79.7184 0 0 0-35.1744 8.3456l13.4656 73.984a16.64 16.64 0 0 1-13.4144 19.3536 15.0528 15.0528 0 0 1-3.0208 0 16.5888 16.5888 0 0 1-16.3328-13.6704l-10.24-57.1392a153.6 153.6 0 0 0-34.9696 70.9632c-10.24 0-18.5344 13.8752-18.5344 24.1152v22.0672a5.9904 5.9904 0 0 0 5.9904 5.9904h30.6176l7.5776 9.6256h146.8416l7.0656-9.6256h20.8896v-0.6656A393.0624 393.0624 0 0 0 798.72 327.68a13.2608 13.2608 0 0 0-7.5776-2.7648zM781.6192 401.92l-7.0656 9.5744h-167.4752l-7.5776-9.5744h-8.6016c12.0832 54.8864 52.4288 110.592 100.4032 110.592 27.8528 0 53.1456-20.48 71.68-47.8208a399.872 399.872 0 0 0 22.8864-62.7712zM525.312 535.8592c-31.9488 35.84-70.7584 60.3648-112.64 60.3648-43.008 0-82.7904-23.6544-115.2512-59.5456a197.632 197.632 0 0 0-101.888 107.52 406.6816 406.6816 0 0 0 426.8032-15.36 197.2736 197.2736 0 0 0-97.024-92.9792z" fill="#FFAD3A" p-id="1519"></path><path d="M607.0784 411.4944l-7.5776-9.5744h-8.6016a180.3264 180.3264 0 0 0 7.3216 24.6272c5.12-5.12 10.24-9.8816 15.36-15.0528zM313.9072 553.216c-5.6832-5.12-11.1616-10.6496-16.4864-16.5376a194.9696 194.9696 0 0 0-31.1808 17.7664 456.8576 456.8576 0 0 0 47.6672-1.2288zM691.2 222.8224a79.7184 79.7184 0 0 0-35.1744 8.3456l13.4656 73.984a16.64 16.64 0 0 1-13.4144 19.3536 15.0528 15.0528 0 0 1-3.0208 0 16.5888 16.5888 0 0 1-16.3328-13.6704l-10.24-57.1392a153.6 153.6 0 0 0-34.9696 70.9632c-10.24 0-18.5344 13.8752-18.5344 24.1152v22.0672a5.9904 5.9904 0 0 0 5.9904 5.9904h30.6176l7.5776 9.6256h18.0736a454.912 454.912 0 0 0 84.992-158.3616 78.08 78.08 0 0 0-29.0304-5.2736zM536.7808 416.9216h-13.9264l-8.704 11.52h-204.8l-9.3696-11.52h-12.3904c10.24 51.8144 40.96 105.1648 81.5104 128.7168A464.7424 464.7424 0 0 0 502.7328 496.64a243.456 243.456 0 0 0 34.048-79.7184z" fill="#FFBB48" p-id="1520"></path><path d="M456.7552 325.9392a16.64 16.64 0 0 1-13.4144-19.3536l16.7936-92.416a97.28 97.28 0 0 0-95.0784 0l16.7936 92.5184A16.64 16.64 0 0 1 368.64 325.9392a19.4048 19.4048 0 0 1-2.9696 0.256A16.6912 16.6912 0 0 1 349.0816 312.32L335.36 236.9536a187.4432 187.4432 0 0 0-46.08 90.6752C276.48 327.68 266.24 344.7296 266.24 357.376v27.1872a7.424 7.424 0 0 0 7.424 7.424h36.352l0.7168 0.8704a461.1584 461.1584 0 0 0 148.1216-66.7648 14.4896 14.4896 0 0 1-2.0992-0.1536zM489.7792 237.1584L476.16 312.32a14.1312 14.1312 0 0 1-0.4096 1.3824 453.7344 453.7344 0 0 0 42.4448-36.3008 165.5808 165.5808 0 0 0-28.416-40.2432z" fill="#FFC753" p-id="1521"></path></svg>