<?xml version="1.0" standalone="no"?><!DOCTYPE svg PUBLIC "-//W3C//DTD SVG 1.1//EN" "http://www.w3.org/Graphics/SVG/1.1/DTD/svg11.dtd"><svg t="1753706954560" class="icon" viewBox="0 0 1024 1024" version="1.1" xmlns="http://www.w3.org/2000/svg" p-id="1860" xmlns:xlink="http://www.w3.org/1999/xlink" width="200" height="200"><path d="M513.2288 511.6928m-445.4912 0a445.4912 445.4912 0 1 0 890.9824 0 445.4912 445.4912 0 1 0-890.9824 0Z" fill="#E9FFF2" p-id="1861"></path><path d="M751.7184 282.7776l-209.408-79.104a77.6704 77.6704 0 0 0-54.4768 0L275.0976 282.9312a72.3456 72.3456 0 0 0-47.9232 67.4304v271.7184c0 74.752 140.5952 167.936 222.72 215.9616a117.4528 117.4528 0 0 0 116.0704 1.1264c85.1456-47.5136 233.3696-141.1584 233.3696-217.088V350.1056a72.448 72.448 0 0 0-47.616-67.328zM657.2544 445.44l-156.5696 159.6416a24.064 24.064 0 0 1-17.3568 7.3216h-0.8704a24.3712 24.3712 0 0 1-17.664-8.6016L380.6208 504.5248a24.32 24.32 0 1 1 37.0688-31.488l66.9696 79.0016 137.8304-140.8a24.32 24.32 0 1 1 34.7648 34.2016z" fill="#42E59B" p-id="1862"></path><path d="M751.7184 282.7776l-209.408-79.104a77.6704 77.6704 0 0 0-54.4768 0L275.0976 282.9312a72.3456 72.3456 0 0 0-47.9232 67.4304v271.7184c0 31.8976 25.6 67.1744 61.44 100.864 4.6592 1.1264 9.3184 2.304 14.0288 3.2256A402.176 402.176 0 0 0 784.4864 307.2a74.9568 74.9568 0 0 0-32.768-24.4224zM657.2544 445.44l-156.5696 159.6416a24.064 24.064 0 0 1-17.3568 7.3216h-0.8704a24.3712 24.3712 0 0 1-17.664-8.6016L380.6208 504.5248a24.32 24.32 0 1 1 37.0688-31.488l66.9696 79.0016 137.8304-140.8a24.32 24.32 0 1 1 34.7648 34.2016z" fill="#54EFA5" p-id="1863"></path><path d="M542.3104 203.6736a77.6704 77.6704 0 0 0-54.4768 0L275.0976 282.9312a72.3456 72.3456 0 0 0-47.9232 67.4304v239.4112a457.8304 457.8304 0 0 0 201.5232-28.5184l-48.0768-56.7296a24.32 24.32 0 1 1 37.0688-31.488l57.2928 67.584a456.8064 456.8064 0 0 0 49.8688-29.6448l97.6384-99.7376a24.3712 24.3712 0 0 1 13.1072-6.7584 457.5232 457.5232 0 0 0 69.9904-139.008z" fill="#5FFFA7" p-id="1864"></path><path d="M487.8336 203.5712l-212.736 79.36a72.3456 72.3456 0 0 0-47.9232 67.4304v91.5968a458.2912 458.2912 0 0 0 352.7168-224.0512l-37.5808-14.2336a77.6704 77.6704 0 0 0-54.4768-0.1024z" fill="#7BFFBA" p-id="1865"></path></svg>