<?xml version="1.0" standalone="no"?><!DOCTYPE svg PUBLIC "-//W3C//DTD SVG 1.1//EN" "http://www.w3.org/Graphics/SVG/1.1/DTD/svg11.dtd"><svg t="1753709550704" class="icon" viewBox="0 0 1024 1024" version="1.1" xmlns="http://www.w3.org/2000/svg" p-id="15250" xmlns:xlink="http://www.w3.org/1999/xlink" width="200" height="200"><path d="M0 204.8v614.4c0 113.1136 91.6864 204.8 204.8 204.8h614.4c113.1136 0 204.8-91.6864 204.8-204.8V204.8c0-113.1136-91.6864-204.8-204.8-204.8H204.8C91.6864 0 0 91.6864 0 204.8z" fill="#1E83FF" p-id="15251"></path><path d="M179.4176 694.528q-27.6864 43.776 3.52 91.8272 20.608 31.7184 57.28 41.8176 36.6592 10.112 70.8224-6.5024l172.3904-83.8528q28.16-13.696 56.832-1.088l29.5552 13.0048a191.9872 191.9872 0 0 1-17.152-54.7456q-44.608-17.344-88.4608 3.9936l-172.3904 83.84q-45.0176 21.9008-72.1664-19.8912-16.2048-24.9344-3.2512-45.4144 41.152-65.0624 146.5856-137.088 52.6976-36.0192 103.8976-54.784v114.0224c0 11.9424 9.7792 21.632 21.824 21.632 3.7248 0 7.3856-0.9472 10.624-2.7392l32.4736-17.9328c5.4528-3.008 9.344-8.192 10.688-14.2336l26.9568-121.1008q22.8096-0.576 45.312 2.496h0.0384a21.7344 21.7344 0 0 0 24.8064-21.4272c0-10.8032-8.064-19.968-18.8544-21.4272q-26.0608-3.5584-52.352-2.9312l-77.5808-90.9824a21.9392 21.9392 0 0 0-21.8624-7.04l-41.024 9.9584a21.632 21.632 0 0 0-14.1312 31.0656l41.6896 78.656q-58.112 20.6976-117.2864 61.1328-112.8576 77.1072-158.784 149.7344zM678.528 484.5312a192.0384 192.0384 0 0 1 44.6592-9.9712L581.9776 234.0224q-23.9872-40.8704-71.6928-41.984-47.7056-1.1264-73.6256 38.5792L277.376 474.6112a21.504 21.504 0 0 0-3.5072 11.7504c0 11.9424 9.7792 21.632 21.824 21.632 7.4112 0 14.3104-3.712 18.3296-9.8816l159.2832-243.9936q12.672-19.3792 35.9424-18.8288 23.296 0.5376 34.9952 20.4928L678.528 484.5312z m-213.1072-75.1616l0.7808-0.1792 49.6512 58.2144q-8.8448 1.6-17.7152 3.6736l-32.7168-61.696z m45.12 103.3344q6.5792-1.4848 13.1456-2.6752l-13.1456 59.072v-56.3968z" fill="#FFFFFF" p-id="15252"></path><path d="M748.8 851.2c98.9696 0 179.2-80.2304 179.2-179.2s-80.2304-179.2-179.2-179.2-179.2 80.2304-179.2 179.2 80.2304 179.2 179.2 179.2z m0-320c77.76 0 140.8 63.04 140.8 140.8s-63.04 140.8-140.8 140.8-140.8-63.04-140.8-140.8 63.04-140.8 140.8-140.8z" fill="#FFFFFF" p-id="15253"></path><path d="M709.76 745.9712h78.4896a4.48 4.48 0 0 1 4.4672 4.48v4.352a4.5696 4.5696 0 0 1-4.48 4.48H709.76a4.6848 4.6848 0 0 1-4.48-4.48v-4.352a4.5696 4.5696 0 0 1 4.48-4.48z m87.2192-84.4288a13.4144 13.4144 0 1 0 13.0944 13.6192 13.2096 13.2096 0 0 0-13.0944-13.4144v-0.2048z m13.0944-57.8048a8.7296 8.7296 0 0 0-8.6272-8.9472H696.96a8.832 8.832 0 0 0-8.7296 8.9472v35.456c-0.128 4.9024 3.8272 8.9344 8.7296 8.9344h104.4864a8.7296 8.7296 0 0 0 8.6272-8.9344v-35.456z m-109.1584 84.4288a13.4144 13.4144 0 1 0-13.1072-13.6192c-0.2304 7.4112 5.6832 13.568 13.1072 13.6192z m131.2 78.592a8.2176 8.2176 0 0 1-11.2256-3.008l-17.984-31.1936a22.0416 22.0416 0 0 1-4.5696 0H699.648a21.7472 21.7472 0 0 1-4.48 0l-17.9712 31.1936a8.1152 8.1152 0 0 1-11.4432 3.008 8.4224 8.4224 0 0 1-3.1232-11.5328l16.7424-29.4272a32.96 32.96 0 0 1-13.6192-28.9024l6.2464-95.872a28.1728 28.1728 0 0 1 28.16-28.6848h27.0464A21.8368 21.8368 0 0 1 748.928 550.4c12.0832 0 21.888 9.7536 21.9392 21.8368h30.0544c17.3568 0 22.976 12.672 24.1152 28.6976l6.2464 95.8592a32.96 32.96 0 0 1-13.4144 29.0048l16.7296 29.4272c2.3424 3.904 1.2544 8.96-2.4832 11.5328z" fill="#FFFFFF" p-id="15254"></path></svg>