<?xml version="1.0" standalone="no"?><!DOCTYPE svg PUBLIC "-//W3C//DTD SVG 1.1//EN" "http://www.w3.org/Graphics/SVG/1.1/DTD/svg11.dtd"><svg t="1753706940910" class="icon" viewBox="0 0 1024 1024" version="1.1" xmlns="http://www.w3.org/2000/svg" p-id="1688" xmlns:xlink="http://www.w3.org/1999/xlink" width="200" height="200"><path d="M513.28 511.6928m-445.4912 0a445.4912 445.4912 0 1 0 890.9824 0 445.4912 445.4912 0 1 0-890.9824 0Z" fill="#FFDEF5" p-id="1689"></path><path d="M651.5712 230.4h-276.48a143.36 143.36 0 0 0-143.36 143.36v276.48a143.36 143.36 0 0 0 143.36 143.36h276.48a143.36 143.36 0 0 0 143.36-143.36V373.76a143.36 143.36 0 0 0-143.36-143.36z m-184.32 401.3568a21.7088 21.7088 0 1 1-30.72 30.72l-24.2176-24.2176-24.2688 24.2176a21.7088 21.7088 0 0 1-30.72-30.72l24.2688-24.2688-24.2688-24.2688a21.7088 21.7088 0 0 1 30.72-30.72l24.2688 24.2688 24.2176-24.2688a21.7088 21.7088 0 1 1 30.72 30.72l-24.2688 24.2688zM468.1728 419.84h-34.304v34.304a21.7088 21.7088 0 0 1-43.4176 0V419.84h-34.304a21.7088 21.7088 0 1 1 0-43.3664h34.304v-34.304a21.7088 21.7088 0 1 1 43.4176 0v34.304h34.304a21.7088 21.7088 0 1 1 0 43.3664z m201.216 242.3808h-103.5776a21.7088 21.7088 0 0 1 0-43.4176h103.5776a21.7088 21.7088 0 0 1 0 43.4176z m0-83.712h-103.5776a21.7088 21.7088 0 0 1 0-43.4176h103.5776a21.7088 21.7088 0 0 1 0 43.4176z m0-162.7136h-103.5776a21.7088 21.7088 0 0 1 0-43.4176h103.5776a21.7088 21.7088 0 0 1 0 43.4176z" fill="#FF279E" p-id="1690"></path><path d="M651.5712 230.4h-276.48a143.36 143.36 0 0 0-143.36 143.36v276.48a142.4896 142.4896 0 0 0 5.5296 39.3216 383.488 383.488 0 0 0 346.112-26.88h-17.6128a21.7088 21.7088 0 0 1 0-43.4176h75.8784a384 384 0 0 0 123.392-332.8A142.9504 142.9504 0 0 0 651.5712 230.4z m-184.32 401.3568a21.7088 21.7088 0 1 1-30.72 30.72l-24.2176-24.2176-24.2688 24.2176a21.7088 21.7088 0 0 1-30.72-30.72l24.2688-24.2688-24.2688-24.2688a21.7088 21.7088 0 0 1 30.72-30.72l24.2688 24.2688 24.2176-24.2688a21.7088 21.7088 0 1 1 30.72 30.72l-24.2688 24.2688zM468.1728 419.84h-34.304v34.304a21.7088 21.7088 0 0 1-43.4176 0V419.84h-34.304a21.7088 21.7088 0 1 1 0-43.3664h34.304v-34.304a21.7088 21.7088 0 1 1 43.4176 0v34.304h34.304a21.7088 21.7088 0 1 1 0 43.3664z m201.216 158.72h-103.5776a21.7088 21.7088 0 0 1 0-43.4176h103.5776a21.7088 21.7088 0 0 1 0 43.4176z m0-162.7136h-103.5776a21.7088 21.7088 0 0 1 0-43.4176h103.5776a21.7088 21.7088 0 0 1 0 43.4176z" fill="#FF40B2" p-id="1691"></path><path d="M651.5712 230.4h-276.48a143.36 143.36 0 0 0-143.36 143.36v206.6432a437.4016 437.4016 0 0 0 120.2176-5.6832 21.6064 21.6064 0 0 1 35.84-22.016l10.752 10.496a442.4704 442.4704 0 0 0 216.832-146.9952h-49.5616a21.7088 21.7088 0 0 1 0-43.4176h80.0768a438.528 438.528 0 0 0 54.4768-133.8368 142.4896 142.4896 0 0 0-48.7936-8.5504zM468.1728 419.84h-34.304v34.304a21.7088 21.7088 0 0 1-43.4176 0V419.84h-34.304a21.7088 21.7088 0 1 1 0-43.3664h34.304v-34.304a21.7088 21.7088 0 1 1 43.4176 0v34.304h34.304a21.7088 21.7088 0 1 1 0 43.3664z" fill="#FF5AC4" p-id="1692"></path><path d="M342.6304 415.232a21.6064 21.6064 0 0 1 13.5168-38.5536h34.304v-34.304a21.7088 21.7088 0 1 1 43.4176 0v27.392A437.0432 437.0432 0 0 0 568.8832 230.4H374.9888a143.36 143.36 0 0 0-143.36 143.36v65.6384a434.0736 434.0736 0 0 0 111.0016-24.1664z" fill="#FF6CD9" p-id="1693"></path></svg>